<?xml version="1.0" encoding="utf-8"?>
<!-- Generator: Adobe Illustrator 24.0.1, SVG Export Plug-In . SVG Version: 6.00 Build 0)  -->
<svg version="1.1" id="Calque_1" xmlns="http://www.w3.org/2000/svg" xmlns:xlink="http://www.w3.org/1999/xlink" x="0px" y="0px"
	 viewBox="0 0 1000 1000" style="enable-background:new 0 0 1000 1000;" xml:space="preserve">
<style type="text/css">
	.st0{fill:#261624;}
	.st1{fill:#8F5BFD;}
	.st2{fill:#B97285;}
	.st3{fill:#955EE9;}
	.st4{fill:#935DF0;}
	.st5{fill:#A668B9;}
	.st6{fill:#BE7575;}
	.st7{fill:#C57961;}
	.st8{fill:#A869B2;}
	.st9{fill:#C27769;}
	.st10{fill:#905CF7;}
	.st11{fill:#BB737F;}
	.st12{fill:#C0766F;}
	.st13{fill:#A466BE;}
	.st14{fill:#9F64CE;}
	.st15{fill:#A165C8;}
	.st16{fill:#AA6AAE;}
	.st17{fill:#C97A58;}
	.st18{fill:#271725;}
	.st19{fill:#CB7C50;}
	.st20{fill:#A266C3;}
	.st21{fill:#9D63D2;}
	.st22{fill:#CE7D49;}
	.st23{fill:#A265C4;}
	.st24{fill:#D17F42;}
	.st25{fill:#AF6DA2;}
	.st26{fill:#B16E9B;}
	.st27{fill:#B8728A;}
	.st28{fill:#D3803B;}
	.st29{fill:#B57090;}
	.st30{fill:#B36F96;}
	.st31{fill:#E48B0D;}
	.st32{fill:#DD8725;}
	.st33{fill:#D68333;}
	.st34{fill:#A467C4;}
	.st35{fill:#AD6DAA;}
	.st36{fill:#A768B6;}
	.st37{fill:#B16E9A;}
	.st38{fill:#9E63D0;}
	.st39{fill:#9661EB;}
	.st40{fill:#9C63DA;}
	.st41{fill:#9361FB;}
	.st42{fill:#DA862E;}
	.st43{fill:#9860E2;}
	.st44{fill:#B06D9E;}
	.st45{fill:#6A5C68;}
	.st46{fill:#E18B1D;}
	.st47{fill:#9B62D7;}
	.st48{fill:#AB6AAA;}
	.st49{fill:#675865;}
	.st50{fill:#CFB7F4;}
	.st51{fill:#B6708D;}
	.st52{fill:#BC737B;}
	.st53{fill:#B36F94;}
	.st54{fill:#AE6CA3;}
	.st55{fill:#AC6BA9;}
	.st56{fill:#B26E98;}
	.st57{fill:#9A61DC;}
	.st58{fill:#9D63D3;}
	.st59{fill:#925DF6;}
	.st60{fill:#9961DD;}
</style>
<g>
	<path class="st0" d="M625.82,546.19c0.91,3.18,1.68,6.42,2.76,9.54c1.94,5.59-3.39,14.69-9.29,15.72c-1.89,0.33-2.72-0.63-3.34-2.2
		c-0.79-1.98-1.71-3.91-2.77-6.33c-2.04,1.83-3.74,3.55-5.64,5c-2.83,2.16-4.62,1.91-5.23-2.17c-3.03-20.16-4.36-40.39-2.8-60.76
		c0.32-4.15,0.98-8.28,1.18-12.43c0.32-6.45,4.19-10.65,8.74-14.46c1.11-0.93,2.34-2.21,3.98-1.52c1.82,0.76,1.15,2.56,1.18,3.98
		c0.06,2.74,0.02,5.49,0.02,8.23c3.24-0.11,5.31-4.89,8.14-2.57c2.78,2.28,1.02,6.19,0.67,9.43c-0.15,1.41-0.77,2.86,0.22,4.61
		c7.56-6.13,15.3-11.8,24.67-14.71c4.17-1.29,8.39-2.1,12.76-2.08c7.24,0.04,10.71,2.45,12.69,9.52
		c3.44,12.28,4.51,24.92,4.17,37.59c-0.19,7.05,0.2,13.95,1.41,20.84c0.6,3.41-0.31,5.96-3.33,8.14c-3.2,2.31-5.69,5.6-8.85,8
		c-1.78,1.35-4.95,4.94-5.58-1.2c-0.18-1.71-1.29-0.76-2.19-0.54c-3.87,0.97-4.11-1.5-3.07-3.92c1.64-3.86,2.45-7.93,3.7-11.89
		c2.09-8.37,2.03-16.74,0.04-25.12c-1.32-5.69-3.02-11.24-6.28-16.16c-4.41-6.65-7.66-7.82-15.13-5.28
		c-4.9,1.67-9.25,4.5-13.78,6.94c-1.93,1.04-2.29,2.63-2.19,4.59c0.18,3.65,0.28,7.31,0.41,10.97
		C623.8,532.73,624.29,539.53,625.82,546.19z"/>
	<path class="st0" d="M831.95,548.98c7.17,2.57,14.5,1.92,21.62,0.28c9.83-2.26,18.83-6.38,26.02-13.89
		c1.54-1.61,3.96-4.63,6.09-2.93c2.28,1.81-0.43,4.54-1.55,6.56c-1.43,2.59-3.01,5.37-5.23,7.23
		c-10.45,8.73-20.87,17.49-33.07,23.85c-8.63,4.5-16.94,3.91-25.31-0.41c-9.3-4.8-17.23-11.36-23.99-19.26
		c-9.61-11.22-10.43-23.08-2.12-35.25c10.97-16.07,24.79-28.55,44.18-33.83c7.66-2.09,15.47-2.21,23.24-2.55
		c3.27-0.14,5.84-0.3,7.57-3.32c0.32-0.56,0.82-1.06,1.33-1.48c2.35-1.9,4.18-6.26,7.4-4.71c2.98,1.43,1.32,5.74,1.38,8.78
		c0.07,3.42-1.74,6.84,0.15,10.28c0.25,0.46,0.07,1.46-0.29,1.89c-4.16,4.97-3.48,11.69-6.32,17.1c-0.92,1.76-1.02,3.18,0.68,4.27
		c3.07,1.97,1.85,3.51-0.22,5.3c-2.39,2.07-4.53,4.42-6.91,6.5c-1.22,1.06-2.07,3.38-4.47,1.75c-2.05-1.39-3.57-2.98-3.25-5.7
		c0.5-4.29,0.92-8.58,1.46-12.86c0.53-4.24-0.76-7.11-4.86-9.24c-8.7-4.53-16.57-4.52-24.55,1.77c-6.82,5.37-13.7,10.59-19.29,17.28
		c-4.64,5.56-4.7,9.35,0.31,14.43c5.32,5.39,8.47,12.93,15.89,16.26C829.09,547.99,830.6,548.31,831.95,548.98z"/>
	<path class="st0" d="M529.98,490.04c1.11,0.73,2.14,1.79,3.36,2.12c9.18,2.52,10.63,10.06,11.81,17.82
		c0.15,0.99,0.24,2.64-0.7,2.62c-5.32-0.08-4.84,4.71-6.58,7.55c-0.95,1.55-1.33,3.64-3.49,3.83c-2.44,0.22-1.79-2.93-2.67-3.31
		c-5.24-2.3-8.28-8.37-14.7-8.51c-2.65-0.06-5.35-0.44-7.96-0.1c-17.28,2.22-20.58,7.22-16.02,23.92c0.61,2.24,1.25,4.49,2.04,6.67
		c3.23,8.83,1.93,18.46,4.91,27.33c2.13,2.34,2.22,4.63-0.15,6.87c-0.42,0.5-0.84,1.01-1.27,1.51c-7.5,8.89-9.35,8.72-14.59-1.38
		c-1.19-3.97-2.7-1.65-4.17-0.22c-0.61,0.57-1.16,1.2-1.82,1.7c-3.9,2.94-5.74,2.46-7.12-2.18c-1.72-5.77-1.8-11.82-2.19-17.77
		c-0.94-14.61-4.56-28.84-5.87-43.39c-0.31-3.5-0.36-6.62,3.18-8.59c1.27-0.71,1.5-1.97,1.89-3.29c1.36-4.63,4.46-8.08,8.31-10.84
		c1.55-1.11,3.29-2.58,4.95,0.14c0.9,1.48,1.68,0.06,2.2-0.51c2.41-2.61,4.03-2.9,3.99,2c1.6-1.49,2.64-2.45,4.3-3.99
		c0.22,4.71-1.3,8.67-0.38,13.85c6.13-6.14,12.33-10.97,19.71-13.96C517.32,487.66,523.66,487.32,529.98,490.04z"/>
	<path class="st0" d="M576.9,491.85c3.69-1.89,3.31,0.67,3.29,2.95c-0.1,10.65-0.16,21.3-0.26,31.95
		c-0.09,10.21,1.65,20.22,3.55,30.18c1.49,7.78-2.55,14.92-9.87,18.14c-3.75,1.64-6.97,1.08-10.52,0.23
		c-1.47-0.35-1.75-1.26-1.96-2.46c-0.68-3.92-1.83-7.82-2.04-11.77c-0.83-15.77-1.32-31.56-2.06-47.34
		c-0.44-9.38,3.12-16.44,11.4-21.07c1.27-0.71,2.31-1.83,3.46-2.76c1.45-0.62,1.91,0.58,2.49,1.42
		C575.1,492.35,575.77,493.08,576.9,491.85z"/>
	<path class="st1" d="M276.13,465.26c-0.74,8.95-3.42,17.53-5.16,26.29c-2.76,13.81-5.92,27.53-8.91,41.3
		c-0.63,2.88-1.69,5.41-4.96,6.15c-8.75,1.04-17.54,0.3-26.31,0.42c-3.18,0.05-2.89-2.31-2.01-4.24c1.73-3.77,3.56-7.52,5.64-11.11
		c12.39-21.42,24.34-43.09,36.42-64.69c1.33-2.38,2.87-6.26,5.77-5.14c2.41,0.93,0.86,4.63,0.07,7.12
		C276.27,462.62,276.82,464.03,276.13,465.26z"/>
	<path class="st2" d="M85.09,539.93c-4.38,10.43-9.18,20.71-13,31.33c-2.37,6.58-5.96,10.35-13.96,10.07
		c3.66-8.53,7.27-16.94,10.87-25.36c0.84-0.78,0.57-2.33,1.92-2.77c5.39-4.97,7.6-11.94,11.19-18.01
		c9.98-16.86,19.19-34.16,28.81-51.23c7.66-13.59,15.59-27.03,22.91-40.83c4.04-7.62,8.94-14.77,12.63-22.6
		c0.63-1.34,1.55-2.58,3.17-2.98c2.3-0.04,4.6-0.06,6.89,0.01c2.76,2.16,0.62,4.32-0.32,6.1c-4.26,8.07-8.7,16.06-13.24,23.97
		c-9.92,17.28-19.65,34.66-29.26,52.12c-6.73,12.21-14.04,24.1-20.34,36.56c-0.69,1.36-1.71,2.45-3.22,2.97
		C88.51,539.84,86.68,538.95,85.09,539.93z"/>
	<path class="st1" d="M238.02,622.93c-9.31,2.21-17.36-0.42-22.18-7.24c-4.96-7.02-5.22-15.1-0.52-22.44
		c4.14-6.47,10.42-9.37,17.84-8.87c8.12,0.55,14.28,4.89,16.96,12.66c2.44,7.08,1.99,14.15-3.59,20.01
		c-1.37,1.44-2.97,2.66-4.46,3.98C240.87,621.98,239.35,622.25,238.02,622.93z"/>
	<path class="st3" d="M212.06,539.77c-2.03,0.01-4.06,0.02-6.09,0.02c-0.81-0.48-2.01-0.15-2.53-1.22c-0.8-2.15,0.32-3.85,1.29-5.6
		c9.93-18.02,20.26-35.8,30.22-53.8c9.88-17.85,20.12-35.5,29.84-53.44c1.42-2.61,3.11-5.09,4.71-7.61c0.4-0.35,0.86-0.54,1.39-0.57
		c2.58-0.01,5.16-0.07,7.74,0.04c2.3,2,0.6,3.99-0.21,5.79c-3.75,8.35-8.69,16.09-13.23,24c-14.3,24.97-27.99,50.27-42.34,75.21
		c-2.57,4.47-5.32,8.84-7.54,13.5C214.56,537.66,213.48,538.85,212.06,539.77z"/>
	<path class="st4" d="M212.06,539.77c3.77-9.43,9.67-17.72,14.52-26.56c8.75-15.96,17.74-31.78,26.68-47.64
		c6.99-12.39,14.03-24.74,21.1-37.08c1.9-3.32,3.46-6.76,4.68-10.38c0.67-0.7,1.41-0.62,2.17-0.19c3.52,0.04,4.97,2.53,4.32,5.24
		c-1.9,7.98-2.67,16.22-5.44,23.99c-2.74-4.16-0.07-8.03,0.42-11.93c-12.05,21.23-24.05,42.68-36,64.16
		c-6.38,11.47-13.06,22.78-19.16,34.41c-1.02,1.94-1.68,3.96-2.39,5.98C219.33,540.23,215.7,540.23,212.06,539.77z"/>
	<path class="st5" d="M208.39,417.6c4.15-0.67,8.29-0.73,12.43,0.04c0.03,5.2-3.64,8.78-5.91,12.88
		c-11.03,19.92-22.23,39.74-33.4,59.58c-8.8,15.64-17.26,31.47-26.21,47.03c-0.59,1.03-1.37,1.88-2.24,2.65
		c-3.3,0.44-6.61,0.43-9.92,0.01c5.19-8.99,10.19-18.09,15.19-27.18c14.56-26.45,29.85-52.5,44.21-79.07
		c1.81-3.36,4.14-6.4,5.82-9.85C209.42,421.52,209.44,419.64,208.39,417.6z"/>
	<path class="st6" d="M72.03,526.98c-1.65-3.49-2.8-7.11-3.06-10.98c2.16-0.42,2.35,1.26,3.01,3.05c9.52-16.74,18.63-33.42,28-49.95
		c7.63-13.45,14.97-27.07,22.89-40.36c1.03-1.73,1.68-3.62,2.62-5.38c1.23-2.32,2.18-4.94,5.1-5.8c2.03-0.03,4.05-0.08,6.07,0.03
		c2.26,1.68,1.12,3.59,0.16,5.26c-8.5,14.69-16.5,29.65-24.97,44.36c-8.56,14.85-16.82,29.88-25.17,44.85
		c-2.67,4.79-5.53,9.49-7.88,14.47c-0.85,1.81-1.96,3.53-4.26,3.82C72.67,529.99,72.93,528.05,72.03,526.98z"/>
	<path class="st7" d="M64.01,498.99c-1.83-3.42-2.58-7.18-3.37-10.93c6.46-5.15,9.29-12.8,13.08-19.67
		c8.7-15.81,17.81-31.39,26.3-47.32c0.86-1.62,1.74-3.25,3.86-3.52c2.85-0.01,5.71-0.04,8.56,0.01c2.79,1.74,1.14,3.71,0.17,5.49
		c-8,14.75-16.37,29.31-24.54,43.96c-5.34,9.58-10.87,19.06-16.22,28.64c-0.73,1.31-1.51,2.58-2.46,3.75
		C67.38,501.87,65.59,501.78,64.01,498.99z"/>
	<path class="st8" d="M208.39,417.6c2.94,0.54,4.3,1.12,2.22,4.73c-12.29,21.31-24.47,42.7-36.23,64.3
		c-7.19,13.21-14.8,26.19-21.79,39.51c-2.5,4.76-4.06,10.68-9.44,13.64c-2.99,0.42-5.99,0.41-8.99,0.01
		c10.78-9.84,15.34-23.64,22.47-35.75c11.1-18.87,21.34-38.25,32.21-57.28c4.61-8.07,8.67-16.45,13.73-24.27
		c1.46-2.26,1.01-3.32-1.79-3.02c-1.27-0.05-2.53,0.02-3.8-0.01c-1.05-0.02-2.1,0.16-3.16,0.04c-2.14-0.01-4.28,0.21-6.42,0.08
		c-1.3-0.23-2.62,0.05-3.93-0.11c-0.76-0.01-1.53-0.02-2.29-0.03c-1.24-0.02-2.48,0.08-3.71-0.03c-0.98-0.03-1.97-0.05-2.92-0.33
		c-0.47-0.16-0.88-0.42-1.25-0.75c-0.07-0.23-0.14-0.47-0.21-0.71C184.85,416.84,196.62,416.9,208.39,417.6z"/>
	<path class="st9" d="M64.01,498.99c3.17,3.16,4.28-0.06,5.37-1.97c7.75-13.52,15.36-27.12,23.03-40.69
		c6.75-11.93,13.53-23.85,20.25-35.8c0.38-0.67,0.28-1.61,0.41-2.42c2.64-1.18,5.42-0.3,8.12-0.56c3.21,1.72,0.9,3.74,0.07,5.36
		c-5.76,11.24-12.24,22.08-18.28,33.17c-8.89,16.34-18.75,32.15-27.1,48.81c-1.04,2.08-2.44,3.97-3.84,5.82
		c-1.03,1.36-2.26,2.57-4.19,1.37C65.63,507.99,64.83,503.48,64.01,498.99z"/>
	<path class="st10" d="M222.97,539.78c-1.16-1.01-1.88-1.72-0.78-3.63c8.73-15.14,17.32-30.36,25.8-45.63
		c7.36-13.25,14.27-26.75,21.89-39.84c3.52-6.06,6.51-12.55,12.02-18.76c-0.68,5.77-1.24,10.51-1.8,15.25
		c-0.91,6.12-1.76,12.26-3.97,18.1c-0.85-3.49,1.75-6.79,0.55-10.55c-2.61,0.79-3.39,3.24-4.43,5.09
		c-11,19.63-21.7,39.44-32.85,58.99c-2.88,5.05-5.67,10.15-8.43,15.26c-2.57,4.77-2.53,4.91,3.14,4.93
		c7.66,0.03,15.32,0.02,22.97,0.02c-1.35,1.32-3.09,1.06-4.72,1.05C242.57,539.99,232.77,539.88,222.97,539.78z"/>
	<path class="st11" d="M149.05,418.12c-5.63,12.7-13.31,24.27-20,36.38c-8.62,15.59-17.34,31.12-26.06,46.65
		c-5.58,9.93-11.25,19.8-16.85,29.72c-4.05,7.18-8.06,14.38-12.05,21.6c-0.7,1.26-0.93,3.19-3.03,1.49
		c-0.78-1.02-0.54-2.09-0.14-3.16c0.03-0.74,0.09-1.47,0.84-1.89c2.27-1.78,2.01-4.74,3.26-7l-0.03,0.06
		c1.25-1.55,0.25-3.32,0.46-4.97c6-11.28,12.31-22.38,18.59-33.5c9.3-16.47,18.34-33.09,27.79-49.47
		c6.55-11.35,12.97-22.77,19.33-34.22c0.57-1.03,1.24-1.98,2.51-2.25C145.47,417.78,147.36,416.95,149.05,418.12z"/>
	<path class="st12" d="M67.85,512.08c4.37-1.07,5.48-5.31,6.97-8.4c6.54-13.62,14.95-26.18,21.89-39.57
		c5.25-10.13,11.18-19.91,16.74-29.89c2.96-5.32,5.75-10.73,8.62-16.1c2.67-0.93,5.33-0.94,8,0c-19.1,34.18-38.2,68.35-57.4,102.71
		c-2.29-1.62-1.89-4.02-3.7-4.83C67.8,514.92,67.88,513.48,67.85,512.08z"/>
	<path class="st13" d="M153.06,539.78c0.09-2.97,1.94-5.21,3.29-7.62c12.22-21.79,24.5-43.55,36.77-65.32
		c9.24-16.4,18.47-32.8,27.71-49.2c3.4-0.74,6.8-0.74,10.2,0.02c-0.06,0.47-0.31,0.83-0.7,1.1c-0.6,0.35-1.26,0.57-1.94,0.71
		c-3.76,2.77-5.33,7.13-7.43,10.95c-13.48,24.59-27.51,48.86-41.01,73.43c-5.51,10.02-11.42,19.82-16.79,29.92
		c-1.01,1.91-1.79,3.89-2.19,6.02C158.34,540.18,155.7,540.22,153.06,539.78z"/>
	<path class="st14" d="M178.05,539.78c-2.33,0.41-4.66,0.41-7,0c-1.58-1.82-0.49-3.49,0.42-5.02c7.24-12.14,13.71-24.7,20.72-36.98
		c8.08-14.14,16.17-28.28,23.96-42.6c6.67-12.25,13.6-24.38,20.7-36.4c0.35-0.59,0.93-0.94,1.55-1.2c2.04-0.09,4.07-0.08,6.1-0.01
		c1.63,4.2-1.57,7.15-3.25,10.06c-14.33,24.85-27.98,50.07-42.29,74.92C191.88,514.9,185.3,527.53,178.05,539.78z"/>
	<path class="st15" d="M238.05,418.11c-0.67,5.15-4.31,8.9-6.63,13.2c-9.77,18.15-20.14,35.98-30.33,53.9
		c-3.99,7.01-8.14,13.93-12.11,20.95c-5.95,10.52-11.82,21.09-17.68,31.66c-0.3,0.53-0.17,1.3-0.25,1.96c-2,0.41-4,0.38-6,0
		c-2-4.66,2.19-7.34,3.87-10.5c5.83-10.97,11.85-21.86,18-32.65c5.25-9.21,10.5-18.44,15.79-27.63
		c5.95-10.34,11.77-20.78,17.46-31.28c2.92-5.4,6.24-10.58,9.03-16.06c0.83-1.63,1.73-3.21,3.46-4.09
		C234.46,417.77,236.35,416.96,238.05,418.11z"/>
	<path class="st16" d="M201.02,418.1c4.78,0.05,5.52,0.93,2.99,4.81c-7.09,10.85-12.64,22.56-19.19,33.72
		c-7.78,13.24-14.78,26.93-22.3,40.32c-7.54,13.42-15.4,26.65-22.89,40.09c-1.39,2.5-3.98,1.23-5.47,2.76
		c-2.7,0.39-5.39,0.41-8.09-0.02c-0.24-0.46-0.18-0.87,0.17-1.25c0.39-0.28,0.81-0.49,1.27-0.63c0.92-0.23,1.87-0.34,2.82-0.39
		c3.07-0.54,4.12-3.16,5.3-5.44c8.46-16.35,17.74-32.23,26.66-48.32c7.39-13.33,14.87-26.6,22.37-39.87
		c4.16-7.36,8.17-14.82,12.46-22.11C198.08,420.11,199.32,418.91,201.02,418.1z"/>
	<path class="st17" d="M103.07,418.1c-12.33,22.79-24.83,45.49-37.91,67.86c-1.13,1.94-2.07,3.41-4.53,2.09
		c-1.95-5.58-3.82-11.17-4.73-17.04c2.5-0.71,2.23,2.64,4.38,2.76c1.7-0.77,1.74-2.85,2.63-4.36c9.39-15.97,17.98-32.4,27.51-48.29
		c0.91-1.52,1.49-3.43,3.73-3.59C97.13,417.85,100.17,416.89,103.07,418.1z"/>
	<path class="st18" d="M559.95,478.11c-0.92-8.21,1.46-16.3,6.7-23.58c1.36-1.9,2.99-3.53,5.01-4.77c4.42-2.7,9.57-0.07,10.06,5.11
		c0.76,8.13-3.18,14.83-6.86,21.47c-2.48,4.46-5.72,8.55-9.74,11.86c-1.14,0.93-2.43,2.1-4,1.55c-1.9-0.67-1.03-2.55-1.12-3.9
		C559.85,483.54,559.95,481.21,559.95,478.11z"/>
	<path class="st19" d="M93.07,418.09c-0.81,4.74-4.21,8.2-6.36,12.24c-7.85,14.74-16.99,28.77-24.25,43.85
		c-0.49,1.03-0.87,2.3-2.26,2.41c-1.47,0.12-1.8-1.2-2.41-2.17c-0.69-1.1-0.5-2.68-1.88-3.4c-1.65-3.13-2.45-6.51-2.88-10
		c3.26,0.25,2.74,2.43,2.74,4.23c6.48-10.95,13.03-22.44,19.16-34.16c1.85-3.54,4.09-6.85,5.98-10.36c0.9-1.68,2.1-2.99,4.16-3.18
		C87.73,417.8,90.47,416.95,93.07,418.09z"/>
	<path class="st20" d="M160.98,539.79c-0.76-0.94-2.13-1.39-1.06-3.24c3.55-6.15,6.76-12.5,10.24-18.69
		c5.17-9.21,10.5-18.33,15.69-27.52c10.41-18.41,20.96-36.74,31.02-55.34c2.68-4.95,6.11-9.47,8.21-14.72
		c0.78-1.96,2.16-2.33,3.96-2.18c1.8,2.03,0.34,3.78-0.61,5.43c-11.42,19.61-22.23,39.56-33.4,59.31
		c-9.53,16.85-18.96,33.76-28.37,50.67c-1.23,2.21-2.11,4.86-4.55,6.28C161.74,539.79,161.36,539.79,160.98,539.79z"/>
	<path class="st21" d="M178.05,539.78c-0.33-3.04,1.28-5.41,2.67-7.87c9.91-17.56,19.61-35.24,29.77-52.66
		c10.06-17.26,19-35.16,29.69-52.07c1.82-2.88,2.17-6.62,4.86-9.08c0.82-0.88,1.83-0.53,2.81-0.44c1.51,2.13-0.06,3.83-0.95,5.47
		c-8.51,15.6-17.45,30.97-26.13,46.48c-9,16.09-18.09,32.13-27,48.27c-2.88,5.22-5.77,10.47-8.84,15.6
		c-0.76,1.27-2.73,2.59-0.1,3.97c1.66,0.12,3.32-0.06,4.98,0.11c1.29,0.03,2.56,0.11,3.67,0.86c0.44,0.35,0.62,0.8,0.57,1.36
		C188.71,540.23,183.38,540.24,178.05,539.78z"/>
	<path class="st22" d="M84.08,418.08c-5.2,9.37-10.13,18.89-15.68,28.05c-4.06,6.71-7.02,14.11-12.48,20.66
		c-1.26-2.11-0.95-4.61-2.89-5.78c-1.03-1.12-1.21-2.49-1.11-3.93c0.55-2.66,1.88-4.98,3.31-7.21c5.94-9.24,10.89-19.02,16.17-28.62
		c0.86-1.57,1.46-3.44,3.66-3.71C78.06,417.83,81.13,416.91,84.08,418.08z"/>
	<path class="st23" d="M162.11,539.79c5.2-9.62,10.32-19.28,15.62-28.84c6.82-12.29,13.79-24.5,20.71-36.74
		c9.61-17.01,19.23-34.02,28.87-51.01c0.91-1.61,1.85-3.16,1.72-5.09c0.67-0.06,1.33-0.12,2-0.18c0.41-0.37,0.75-0.3,1,0.19
		c-2.59,7.81-7.54,14.37-11.38,21.51c-5.34,9.92-10.39,20.05-16.4,29.56c-5.24,8.27-9.62,17.01-14.65,25.38
		c-5.19,8.63-9.84,17.66-14.6,26.58c-2.88,5.39-5.72,10.78-9.23,15.81c-0.52,0.75-0.5,1.87-0.73,2.82
		C164.08,539.78,163.09,539.78,162.11,539.79z"/>
	<path class="st24" d="M74.08,418.07c-4.05,10.18-9.79,19.48-15.43,28.79c-2.1,3.46-3.18,7.69-6.73,10.23
		c-2.06-4.48-3.31-9.19-4.04-14.05c2.81-0.49,4.64-2.16,5.9-4.66c2.66-5.3,5.84-10.32,8.49-15.62c1.07-2.13,1.92-4.67,4.81-5.21
		C69.41,417.79,71.82,416.95,74.08,418.07z"/>
	<path class="st25" d="M83.12,590.81c6.95,6.54,7.83,16.05,2.25,24.29c-5.29,7.83-15.14,10.74-23.52,6.95
		c0.27-0.44,0.7-0.97,1.12-0.89c5.81,1.11,7.76-2.96,9.71-7.11c2.35-4.96,4.82-9.88,8-14.36C82.64,596.94,82.01,593.69,83.12,590.81
		z"/>
	<path class="st26" d="M83.12,590.81c2.88,4.51-0.1,8.13-2.32,11.37c-3.47,5.06-5.79,10.68-8.7,15.99c-1.88,3.43-3.48,5.89-7.8,3.88
		c-0.67-0.31-1.63-0.01-2.45,0c-0.85,0.02-1.53-0.3-2.02-1c6.76-8.81,10.93-19.17,16.99-28.4c1.15-1.75,0.52-3.89,1.26-5.73
		C80.41,587.37,81.9,588.91,83.12,590.81z"/>
	<path class="st27" d="M50.92,610.99c-6.53-11,5.48-27.29,16.11-26.15c2.44,1.4,1.69,3.52,0.69,5.13
		c-3.98,6.44-6.7,13.57-11.13,19.75C55.06,611.86,53.59,614.05,50.92,610.99z"/>
	<path class="st28" d="M66.08,418.06c-3.91,8.21-8.34,16.13-12.98,23.94c-1.41,2.37-2.89,3.68-5.23,1.04
		c-1.98-4.13-3.05-8.53-3.84-13.02c2.78,0.22,2.95,1.86,2.4,3.88c2.69-4.19,4.85-8.95,7.63-13.35c0.77-1.22,1.13-2.81,2.94-3.01
		C60.03,417.82,63.11,416.94,66.08,418.06z"/>
	<path class="st29" d="M50.92,610.99c1.38,0.5,2.76,1.31,3.83-0.59c4.02-7.11,8.13-14.17,12.08-21.31c0.69-1.25,1.09-2.79,0.19-4.25
		c2.06-1.52,4.05-0.23,6.06,0.16c2.76,1.53,2.4,3.85,1.17,5.99c-4.76,8.36-8.75,17.16-14.25,25.09c-2.4,3.46-3.2,3.31-7.01-1.12
		C51.71,613.96,51.18,612.54,50.92,610.99z"/>
	<path class="st30" d="M52.99,614.98c2.92,2.68,4.49,2.92,7-1.28c4.47-7.49,8.03-15.47,12.8-22.75c1.39-2.12,1.46-3.89,0.29-5.93
		c1.98-0.19,3.62,0.51,4.99,1.91c2.69,2.73,0.8,5.57-0.55,7.63c-4.99,7.63-9.27,15.64-13.52,23.66c-0.95,1.78-2.03,2.98-4.17,2.84
		C56.61,620.08,54.17,618.24,52.99,614.98z"/>
	<path class="st31" d="M14.14,403.2c-4.18,1.8-6.91,0.52-8.18-3.86c-0.25-5.93,1.65-7.67,8.5-7.8c4.98,0.02,9.96-0.04,14.94,0.03
		c1.62,3.87,0.19,6.91-3.56,7.39c-1.8,0.23-3.63,0.01-5.44,0.13c-0.49,0.07-0.97,0.19-1.44,0.35
		C16.85,400.04,15.82,402.03,14.14,403.2z"/>
	<path class="st32" d="M30.04,392.07c-5.32-0.01-10.63-0.03-15.95-0.04c-0.36-0.19-0.47-0.37-0.36-0.56
		c0.12-0.19,0.23-0.28,0.35-0.28c7.44-0.05,14.89-0.16,22.33-0.14c2.62,0.01,4.89,0.86,5.75,3.74c1.85,4.26,1.51,9.17,3.96,13.26
		c0.21,0.24,0.27,0.52,0.16,0.82c-0.06,0.23-0.13,0.47-0.19,0.7c-0.2,0.64-0.41,1.28-0.76,1.84c-1.06,1.72-2.27,3.84-4.38,3.66
		c-2.26-0.19-1.56-2.89-2.19-4.44c-0.49-1.22-0.63-2.57-1.57-3.6c-0.76-6.16-4.34-8.11-10.23-7.24c-2.91,0.43-5.93,0.15-8.9,0.19
		c-0.29-0.21-0.39-0.42-0.29-0.62c0.1-0.21,0.19-0.31,0.29-0.31c0.33-0.04,0.67-0.08,1-0.13c5.11-0.14,10.14-1.33,15.27-1.13
		c1.4,0.06,2.86,0.09,3.17-1.62c0.39-2.2-1.42-2.29-2.87-2.54C33.02,393.35,31.28,393.46,30.04,392.07z"/>
	<path class="st33" d="M56.09,418.04c-1.45,6.31-5.54,11.11-8.7,16.68c-1.98-1.53-1.64-3.82-3.35-4.71
		c-1.13-3.65-2.25-7.3-3.38-10.95c4.94,0.77,5.44,0.25,4.86-5.22c-0.17-1.63-0.6-3.24,0.48-4.73c0,0,0.3-0.25,0.3-0.25
		c1.92,2.46,1.62,5.78,3.22,8.37C51.63,418.13,54.01,416.82,56.09,418.04z"/>
	<path class="st34" d="M140.03,596.89c-6.98,0-13.95,0-20.93,0c0.79-2.89,2.95-5.07,3.99-7.83c7.64,0,15.28-0.01,22.93-0.01
		c0.3,1.32-0.71,1.79-1.59,1.93C140.94,591.51,140.3,594.04,140.03,596.89z"/>
	<path class="st35" d="M106.05,596.89c-4.65,0.02-9.31,0.03-13.96,0.05c-1.03-2.42-2.06-4.84-3.35-7.88c7.59,0,14.93,0,22.28,0
		C109.97,592.05,106.55,593.55,106.05,596.89z"/>
	<path class="st36" d="M106.05,596.89c-2.03-4.95,2.12-5.99,4.97-7.84c4.02,0,8.04,0,12.06,0c1.39,3.99-1.33,5.9-3.99,7.83
		C114.75,596.89,110.4,596.89,106.05,596.89z"/>
	<path class="st37" d="M56.09,418.04c-2.16-0.55-4.53,0.59-6.58-0.81c40.39-0.01,80.77-0.04,121.15-0.03c0.81,0,1.62,0.28,2.43,0.43
		c0,0-0.03,0.28-0.03,0.28c-1.96,2.21-4.53,1.74-7.02,1.62c-3.07,0-6.28,0.87-8.99-1.42c-2.66,0-5.33,0-7.99,0c-2,0-4,0-6,0
		c-2,1.55-4,1.6-5.99,0c-2.33,0-4.67,0-7,0c-2.67,0-5.33,0-8,0c-3,0-6-0.01-9-0.01c-3.33,0-6.67,0-10-0.01
		c-3.33,0-6.66-0.01-10-0.01c-3,0-6,0-9,0c-3.33-0.01-6.66-0.01-10-0.02c-2.67,0-5.33-0.01-8-0.01
		C62.75,418.05,59.42,418.05,56.09,418.04z"/>
	<path class="st38" d="M140.03,596.89c-2.07-3.08-1.08-6.15,2.29-6.87c1.25-0.27,2.69,0.21,3.7-0.97c2.68,0,5.36,0.01,8.04,0.01
		c1.55,4.07-0.2,6.46-3.97,7.83C146.74,596.89,143.38,596.89,140.03,596.89z"/>
	<path class="st39" d="M189.04,596.92c-5.99-0.01-11.97-0.02-17.96-0.03c0.35-3.1,2.09-5.5,3.97-7.83c5.67-0.01,11.33-0.02,17-0.02
		c0.28,0.41,0.3,0.81,0.01,1.22c-0.75,0.67-1.71,0.83-2.65,1.06c-1.1,0.26-2.38,0.47-2.65,1.76c-0.37,1.77,1.62,1.69,2.36,2.62
		C189.4,596.13,189.35,596.54,189.04,596.92z"/>
	<path class="st40" d="M150.09,596.89c2.59-1.96,3.24-4.91,3.97-7.83c6.32,0,12.64-0.01,18.96-0.01c0.01,2.2-1.8,1.94-3.11,2.21
		c-5.51,1.16-5.52,1.14-2.88,5.64C161.38,596.9,155.73,596.89,150.09,596.89z"/>
	<path class="st41" d="M189.04,596.92c0.01-0.32,0.01-0.64,0.01-0.96c1.65-1.87,3.93-1.3,6-1.54c1.83-0.22,4.02,0.25,4.93-2.3
		c-2.55-1.52-5.85,0.34-7.93-2.15c0-0.31,0-0.62,0-0.93c5.11-0.07,10.23,0.06,15.32-0.26c4.59-0.29,5.18,1.2,2.81,4.8
		c-0.62,0.94-0.85,2.13-1.26,3.21C202.3,596.84,195.67,596.88,189.04,596.92z"/>
	<path class="st42" d="M45.99,409.12c0.07,3.46,2.32,6.6,0.58,10.43c-1.77,3.92-2.85,3.93-4.72,0.33c-0.19-0.37-0.78-0.54-1.19-0.81
		c-1.15-4.01-2.3-8.02-3.45-12.04c3.21,1.39,1.86,4.87,3.36,7.15C43.53,413.81,43.59,410.16,45.99,409.12z"/>
	<path class="st43" d="M167.02,596.9c-1.08-1.59-3.29-0.28-4.47-1.75c0.75-4.04,3.01-5.92,7.24-5.22c1.13,0.19,2.34,0.11,3.23-0.88
		c0.68,0,1.36,0.01,2.04,0.01c-0.06,3.25-1.67,5.72-3.97,7.83C169.73,596.9,168.38,596.9,167.02,596.9z"/>
	<path class="st44" d="M85.09,539.93c1.43-1.51,3.31-0.72,4.99-0.97c2.68-1.7,5.61-1.9,8.65-1.5c2.55,0.09,5.11-0.34,7.67,0.02
		c1.08,0.08,2.17,0,3.26,0.01c1.31,0.15,2.67,0.14,3.83,0.92c0.44,0.35,0.64,0.81,0.59,1.37
		C104.41,539.83,94.75,539.88,85.09,539.93z"/>
	<path class="st45" d="M983.91,543.97c1.24-5.96,1.95-11.95,1.04-18.03"/>
	<path class="st14" d="M249.05,417.65c6.99-0.8,13.99-0.79,20.98-0.01l0.07,0.32l-0.12,0.13c-1.61,1.48-3.6,1.53-5.61,1.51
		c-1.36-0.22-2.74,0.05-4.1-0.1c-1.07-0.05-2.13,0.1-3.2,0.03c-1.84-0.13-3.7,0.16-5.55-0.15c-0.81-0.13-1.55-0.43-2.17-0.98
		C249.25,418.15,249.15,417.9,249.05,417.65z"/>
	<path class="st42" d="M46.13,408.04c-3.71-3.7-2.84-8.78-3.96-13.26C44.49,398.91,45.25,403.49,46.13,408.04z"/>
	<path class="st23" d="M249.05,417.65l-0.01,0.26c-0.29,0.38-0.63,0.44-1.03,0.18c-0.99,0-1.98,0.01-2.97,0.01c-2.33,0-4.67,0-7,0
		c-2,0-4,0-6,0c-0.33-0.06-0.67-0.12-1-0.18c0,0-0.01-0.27-0.01-0.27C237.04,416.86,243.04,416.88,249.05,417.65z"/>
	<path class="st46" d="M14.09,391.18c0,0.28,0,0.56,0,0.84c-5.13-0.25-7.84,2.19-8.14,7.32C4.57,393.59,7.25,390.89,14.09,391.18z"
		/>
	<path class="st47" d="M194.04,539.78c0-0.26-0.01-0.51-0.02-0.77c0.18-0.2,0.37-0.41,0.55-0.61c0.96-0.64,2.06-0.77,3.17-0.84
		c2.25-0.2,4.47-0.25,6.31,1.39c0.64,0.28,1.28,0.57,1.92,0.85C201.99,540.23,198.02,540.24,194.04,539.78z"/>
	<path class="st48" d="M114.07,539.79c-0.01-0.26-0.02-0.52-0.03-0.77c0.17-0.19,0.34-0.39,0.51-0.58c0.9-0.6,1.92-0.75,2.97-0.82
		c1.06-0.18,2.12-0.05,3.18-0.07c1.93-0.02,3.92-0.24,5.36,1.48c0,0.26,0,0.51,0,0.77C122.07,540.23,118.07,540.23,114.07,539.79z"
		/>
	<path class="st2" d="M76.07,536.99c-0.22,1.69,0.66,3.62-1.08,4.99c0.5-3.51-1.49-6.59-1.68-9.98c0.42-0.26,0.85-0.26,1.29-0.05
		C76.33,533.26,76.35,535.08,76.07,536.99z"/>
	<path class="st47" d="M270.1,417.96c0,0-0.07-0.33-0.07-0.32c3.75-0.63,7.49-1.04,11.18,0.29c-0.72,0.06-1.45,0.13-2.17,0.19
		C276.06,418.06,273.08,418.01,270.1,417.96z"/>
	<path class="st2" d="M75.02,541.91c-0.36,2.67-0.16,5.6-3.25,7C72.89,546.59,73.15,543.88,75.02,541.91z"/>
	<path class="st49" d="M576.9,491.85c-3.18,3.25-2.98-2.23-5.01-1.94c1.13-1.68,2.14-1.1,2.7,0.34
		C575.06,491.44,575.56,492.14,576.9,491.85z"/>
	<path class="st46" d="M18.07,399.05c0,0.31,0,0.63,0,0.94c-0.98,1.48-1.85,3.1-3.94,3.21C14.92,401.32,16.35,400.04,18.07,399.05z"
		/>
	<path class="st11" d="M74.06,531.98c-0.25,0-0.5,0-0.75,0c-0.55-1.64-1.48-3.18-1.28-5.01c0.68,1,1.37,2,2.05,3.01
		C74.7,530.66,74.6,531.32,74.06,531.98z"/>
	<path class="st50" d="M238.02,622.93c1.09-1.18,2.45-1.8,4.05-1.9C241.22,622.74,239.75,623.12,238.02,622.93z"/>
	<path class="st0" d="M453.18,482c-1.33-4.41-2.82-8.9-2.91-13.62c-0.25-12.65-6.15-22.2-16.35-29.23
		c-5.46-3.76-11.59-5.82-18.09-7.54c-6.34-1.68-12.34-2.2-18.64-1c-13.88,2.64-24.05,10.75-33.72,20.75
		c-13.46,13.92-19.68,30.1-19.95,51.91c0.4,9.32,1.91,21.32,6.6,32.73c9.32,22.66,27.69,33.37,50.76,28.66
		c16.49-3.36,29.55-12.86,39.59-26.1C453.21,521.77,459.59,503.32,453.18,482z M365.12,463.11c-0.11,1.37-1.07,2.17-1.99,3
		c0,0,0,0,0,0c-0.5,0.76-1.03,2.35-1.7,1.9c-1.32-0.88-0.43-2.19,0.37-3.21c0.46-1.71,0.83-3.47,2.3-4.69
		c3.75-7.34,10.12-11.45,17.57-14.24c0,0,0,0,0,0c1.42-0.64,2.85-1.28,4.27-1.92c0,0,0,0,0,0c1.75-1.51,4.01-0.8,6.71-1.74
		c-1.06,2-1.86,3.03-3.74,2.63c-1.45,1.09-2.9,2.17-4.79,2.38C377.21,451.83,370.41,456.56,365.12,463.11z M381.84,530.75
		c-4.62-6.89-7.13-14.61-8.26-22.78c-1.72-12.43-2.3-24.93,0.4-37.24c2.84-12.95,19.57-21.34,32.49-18.49
		c7.44,1.64,11,6.17,14.39,11.61c6.95,11.2,11.05,26.8,11.12,41.55c-0.17,3.69-0.34,7.97-1.05,12.28
		c-1.9,11.53-9.07,17.64-19.81,20.43c-2.57,0.67-5.23,1.04-7.77,1.82C393.56,542.93,386.99,538.43,381.84,530.75z M439.37,526.22
		c-0.09,0.22-0.26,0.42-0.49,0.61c-4.51,12.46-13.2,20.44-25.88,24.14c-4.32,1.83-8.79,2-14.06,1.6c1.95-2.44,3.92-2.74,6.08-2.59
		c13.39-4.39,23.05-13.69,31.82-24.15c0.9-2.25,1.94-4.41,3.94-6.47C441.38,522.19,440.82,524.34,439.37,526.22z"/>
	<path class="st0" d="M782.92,528.88c-2.15-10.35-6.58-20.44-14.47-28.01c-5.97-5.73-12.68-10.97-21.64-11.19
		c-3.18-0.08-6.33-0.18-9.39-0.97c-5.9-1.53-11.34-0.16-16.2,3.04c-12.95,8.5-23.36,19.41-29.02,34.01
		c-10.6,27.35,6.35,48.38,32.73,50.06c5.65,0.36,11.31,0.54,16.96,0.8c6.35,0.51,12.37-0.63,17.38-4.72
		c4.64-3.78,9.39-7.57,13.34-12.02C780.4,551.11,785.35,540.58,782.92,528.88z M751.03,554.05c-9.29,2.71-18.65,3.42-28.11,0.97
		c-15.94-5.37-21.55-19-14.05-34.13c6.15-12.41,11.36-14.7,24.97-11.07c11.55,3.08,20.68,9.81,28.05,18.96
		c7.88,9.78,5.72,18.27-5.71,23.45C754.53,552.97,752.75,553.45,751.03,554.05z M758.75,563.9c2.46-3.5,5.34-4.98,8.23-6.46
		C765.27,560.39,763.52,563.29,758.75,563.9z"/>
	<path class="st0" d="M984.95,525.95c-2.02-4.73-3.75-9.6-6.11-14.15c-6.22-12.01-15.59-20.18-29.39-22.07
		c-3.09-0.42-6.31-0.25-9.38-1.02c-5.71-1.44-11.03-0.29-15.77,2.79c-14.02,9.12-25.22,20.88-30.45,37.04
		c-7.95,24.62,5.98,43.35,30.17,46.99c7.37,1.11,14.94,0.91,22.43,1.2c4.75,0.18,9.55-0.49,13.3-3.42
		c10.19-7.96,21.13-15.43,24.15-29.33C986.04,538.07,987.1,532.1,984.95,525.95z M937.67,556.84c-7.53-0.25-14.54-1.47-20.53-5.89
		c-7.23-5.34-9.95-12.61-8.43-21.45c0.25-1.47,0.5-2.98,1.05-4.35c6.55-16.09,11.16-19.81,28.95-14.69
		c11.16,3.21,20.03,10.39,26.88,19.73c6.64,9.06,4.61,16.38-5.54,21.38C952.93,555.07,945.27,556.4,937.67,556.84z M965.88,561.92
		C965.88,561.92,965.88,561.92,965.88,561.92c-1.04,0.6-1.72,1.97-3.32,1.62c-0.39-1.94,1.42-1.92,2.19-2.74
		c1.44-1.52,2.6-3.43,5.46-3.72C969.98,560.03,967.65,560.75,965.88,561.92z"/>
	<path class="st51" d="M99.07,538.95c-3,0-5.99,0-8.99,0.01c5.8-10.58,11.55-21.18,17.42-31.72c6.03-10.82,12.27-21.52,18.25-32.37
		c6.46-11.72,13.52-23.1,19.64-35.02c3.75-7.3,8.88-13.89,11.66-21.73c3,0,6,0,9,0c1.59,2.26,0.16,4.13-0.87,5.97
		c-10.09,18.18-20.27,36.32-30.49,54.43c-9.24,16.37-18.41,32.79-27.92,49.02C104.44,531.51,103.39,536.32,99.07,538.95z"/>
	<path class="st43" d="M204.05,538.95c-2.33,0-4.67,0-7,0c-1.98-2.63-0.19-4.8,1.05-6.83c9.27-15.16,17.66-30.82,26.41-46.27
		c11.53-20.36,23.02-40.75,34.27-61.27c1.34-2.44,2.44-5.17,5.23-6.48c1.99-0.01,3.98-0.01,5.97-0.02
		c0.05,5.22-3.86,8.81-6.17,12.72c-11.66,19.68-22.11,40.03-33.71,59.74c-8.65,14.7-16.78,29.7-25.07,44.61
		C204.42,536.26,204.36,537.68,204.05,538.95z"/>
	<path class="st52" d="M74.06,531.98c0.01-0.67,0.01-1.33,0.02-2c5.24-4.62,7.02-11.38,10.44-17.12
		c9.73-16.32,18.67-33.1,28.17-49.56c8.17-14.15,15.82-28.61,23.97-42.78c0.38-0.66,0.28-1.61,0.4-2.42c2,0,4,0,5.99,0
		c-2.32,7.35-6.9,13.58-10.43,20.3c-6.68,12.74-14.39,24.94-21.48,37.48c-11.1,19.62-22.03,39.33-33.07,58.98
		c-0.46,0.82-1.33,1.41-2.01,2.11C74.54,535.66,75.29,533.43,74.06,531.98z"/>
	<path class="st53" d="M99.07,538.95c5.43-9.82,10.8-19.66,16.29-29.44c8.34-14.84,16.76-29.63,25.16-44.43
		c8-14.09,16.03-28.15,23.98-42.27c0.79-1.41,1.04-3.13,1.55-4.7c2.34-0.07,4.68-0.13,7.01-0.2c0.32,0.08,0.64,0.14,0.97,0.18
		c0.91,2.03-0.44,3.5-1.29,5.06c-8.86,16.39-18.29,32.46-27.24,48.79c-11.44,20.86-23.96,41.11-34.77,62.31
		c-0.92,1.8-2.06,3.42-3.66,4.68C104.4,538.95,101.73,538.95,99.07,538.95z"/>
	<path class="st54" d="M126.06,539.02c-2-0.02-4-0.04-6-0.07c-1.58-2.32,0.03-4.18,1.07-5.95c8.99-15.17,17.39-30.67,26-46.05
		c9.17-16.39,18.53-32.67,27.46-49.2c3.65-6.76,6.67-14.13,12.43-19.65c2.33,0,4.66,0,7,0c0.84,1.82-0.28,3.19-1.09,4.61
		c-15.02,26.27-29.48,52.86-44.48,79.14c-5.93,10.39-11.8,20.82-17.45,31.37c-1.1,2.06-2.17,4.13-3.93,5.73
		C126.73,538.97,126.4,539,126.06,539.02z"/>
	<path class="st55" d="M127.06,538.95c1.44-6.42,5.44-11.68,8.6-17.16c3.04-5.27,5.94-10.68,9.09-15.91
		c7.41-12.3,13.85-25.18,20.85-37.73c8.06-14.44,16.3-28.77,24.47-43.15c1.31-2.31,2.64-4.6,3.96-6.9c1.01,0,2.02,0,3.02,0
		c1.43,1.91,0.15,3.47-0.72,5.01c-6.68,11.84-13.39,23.65-19.95,35.55c-13.59,24.66-27.95,48.89-41.04,73.83
		c-1.3,2.48-2.63,5.02-5.27,6.45C129.07,538.95,128.07,538.95,127.06,538.95z"/>
	<path class="st37" d="M114.04,539.01c-1.32-0.02-2.64-0.04-3.96-0.06c-1.04-3.16,1.13-5.46,2.45-7.77
		c9.35-16.44,18.64-32.92,27.86-49.43c11.07-19.84,22.68-39.38,33.12-59.56c0.87-1.68,2.08-2.98,3.55-4.09c1.33,0,2.67,0,4,0
		c1.27,1.54,0.17,2.8-0.51,4.09c-4.15,7.95-8.59,15.74-13.01,23.55c-9.97,17.61-19.76,35.32-29.71,52.94
		c-7.65,13.56-14.7,27.51-23.73,40.28L114.04,539.01z"/>
	<path class="st56" d="M177.05,418.1c-5.99,13.28-13.84,25.54-20.88,38.24c-9.35,16.88-18.82,33.71-28.23,50.56
		c-5.96,10.68-11.91,21.37-17.87,32.05c-1,0-2.01,0-3.01,0c3.15-8.95,8.62-16.73,12.91-25.1c4.43-8.64,9.83-16.78,14.64-25.24
		c5.64-9.93,11.07-19.97,16.64-29.94c7.57-13.54,15.18-27.05,22.77-40.58C175.04,418.1,176.04,418.1,177.05,418.1z"/>
	<path class="st44" d="M187.02,418.1c-5.94,10.86-11.8,21.75-17.83,32.56c-8.76,15.71-17.63,31.37-26.48,47.04
		c-6.91,12.23-13.89,24.43-20.79,36.67c-0.8,1.42-1.25,3.05-1.86,4.58c-1,0-2,0-3,0c-1.37-1.52-0.92-3.1-0.04-4.6
		c9.47-16.16,18.67-32.48,27.74-48.87c7.05-12.75,14.1-25.5,21.47-38.06c5.7-9.72,10.68-19.85,16.82-29.31
		C184.38,418.1,185.7,418.1,187.02,418.1z"/>
	<path class="st48" d="M130.07,538.95c8.02-14.7,15.67-29.61,24.16-44.04c12.2-20.74,23.63-41.9,35.39-62.88
		c2.58-4.6,5.74-8.86,7.42-13.93c1.32,0,2.65,0,3.97,0c-7.15,12.68-14.2,25.42-21.47,38.03c-8.83,15.32-17.5,30.73-25.89,46.3
		c-6.17,11.45-12.84,22.63-19.22,33.96C133.43,538.18,132.19,539.22,130.07,538.95z"/>
	<path class="st44" d="M183.05,418.1c0.15,1.6-0.71,2.78-1.46,4.11c-13.35,23.83-26.56,47.73-39.94,71.55
		c-7.21,12.84-14.69,25.52-22.01,38.3c-1.23,2.14-2.73,4.22-2.58,6.9c-0.99,0-1.98,0-2.97,0c0.76-5.31,4.53-9.15,6.96-13.6
		c9.04-16.55,18.64-32.79,27.9-49.22c10.71-18.98,21.29-38.04,31.91-57.07c0.15-0.27,0.13-0.65,0.19-0.97
		C181.72,418.1,182.39,418.1,183.05,418.1z"/>
	<path class="st47" d="M251.01,418.11c2,0,4,0,6,0c0.98,2.38-0.5,4.23-1.55,6.02c-13.54,23.1-26.19,46.7-39.52,69.92
		c-7.53,13.12-15.06,26.26-22.2,39.61c-1.02,1.91-2.06,3.81-3.69,5.3c-2,0-3.99,0-5.99,0c-1.04-2.31,0.14-4.18,1.21-6.07
		c16.32-28.75,32.28-57.7,48.71-86.39c4.61-8.05,9.34-16.05,13.52-24.35C248.34,420.49,249.19,418.89,251.01,418.11z"/>
	<path class="st57" d="M190.05,538.95c1.75-6.87,6.08-12.46,9.41-18.51c11.46-20.78,23.23-41.38,34.88-62.06
		c7.56-13.42,15.11-26.86,22.66-40.28c1.01,0,2.02,0,3.02,0.01c1.21,4.23-1.72,7.29-3.48,10.38c-15.1,26.54-29.9,53.25-44.93,79.83
		c-5.79,10.24-11.31,20.65-17.55,30.63c0,0-0.06,0.06-0.06,0.06C192.7,538.99,191.38,538.97,190.05,538.95z"/>
	<path class="st58" d="M251.01,418.11c-12.41,23.63-26.31,46.43-39.09,69.85c-9.28,17-19.8,33.34-27.86,51
		c-4.46,0.13-2.43-2.84-1.65-4.26c4.1-7.53,8.54-14.88,12.74-22.36c7.75-13.83,15.36-27.74,23.14-41.55
		c8.03-14.26,16.2-28.43,24.28-42.66c1.88-3.31,3.63-6.68,5.44-10.03c0.34-0.06,0.68-0.12,1.03-0.18
		C249.7,417.98,250.36,418.04,251.01,418.11z"/>
	<path class="st46" d="M30.04,392.07c1.82,0,3.66-0.15,5.47,0.03c2.08,0.21,4.88,0.21,4.13,3.43c-0.54,2.34-0.41,5.31-5.23,3.88
		c-4.74-1.4-10.2-0.42-15.34-0.48c0.74-0.29,1.55-0.94,2.21-0.81C26.34,399.1,28.8,396.51,30.04,392.07z"/>
	<path class="st59" d="M192.05,589.97c2.14,0,4.3-0.19,6.41,0.07c1.29,0.16,3.78-1.37,3.66,1.54c-0.08,2.12-0.79,4.34-3.69,4.36
		c-3.13,0.02-6.25,0.02-9.38,0.02c-1.45-0.73-4.48,1.61-4.37-1.94c0.08-2.47,1.41-4.36,4.43-4.07
		C190.08,590.05,191.07,589.97,192.05,589.97z"/>
	<path class="st60" d="M194.08,538.95c1.24-7.62,6.63-13.24,9.78-19.96c3.29-7,7.7-13.45,11.26-20.36
		c4.24-8.23,9.33-16.02,13.86-24.1c5.82-10.39,11.19-21.03,17.23-31.29c4.87-8.25,9.98-16.34,13.82-25.14c1.33,0,2.65,0,3.98,0
		c-9.58,17.04-19.18,34.06-28.72,51.11c-9.28,16.58-18.47,33.21-27.77,49.78c-2.49,4.44-5.31,8.69-7.89,13.08
		c-1.25,2.13-2.73,4.21-2.58,6.88C196.06,538.95,195.07,538.95,194.08,538.95z"/>
</g>
</svg>
